<svg xmlns="http://www.w3.org/2000/svg" viewBox="0 0 461.32 455.78"><defs><style>.cls-1{fill:#fff;}.cls-2{fill:none;stroke:#fcfcfc;stroke-miterlimit:10;stroke-width:17px;}</style></defs><title>flower-ornament-15</title><g id="Capa_1" data-name="Capa 1"><path class="cls-1" d="M401.4,494.22h0a.25.25,0,0,0,0-.49s-1.45-.27-4-.59c-1.28-.16-2.83-.23-4.63-.34-.9-.07-1.84,0-2.85,0h-1.06c-35.12-39.23-68.79-87.88-84.28-147.92a11.8,11.8,0,0,0,5.09-2l.32-.26a2.35,2.35,0,0,0,.33-.3,16.93,16.93,0,0,1,1.42-1.2,36.78,36.78,0,0,1,7.81-4.08c6.94,28.77,18.77,56.65,35.71,84.21-.1.36-.2.71-.27,1-.39,1.75-.76,3.27-1,4.54-.4,2.54-.55,4-.55,4a.26.26,0,0,0,.23.28A.25.25,0,0,0,354,431h0l.63-1.26,3.21-4.39q7.28,11.46,15.72,22.87c28.34,38.25,61.89,69.45,88.79,94.45,18.3,17,33.86,31.36,43.73,44.49L492.92,597c-8.64-11.49-24.05-25.86-41.78-42.33s-38.1-35.41-58.33-57.56l7.21-2.63Z" transform="translate(-187.84 -171.16)"/><path class="cls-1" d="M267.51,342.19a58.07,58.07,0,0,1-12.73-10.48,150.66,150.66,0,0,1-35.32-61.28c-.69-2.4-1.27-4.8-1.81-7.2-16.22-13.63-25.13-15.9-28-16.26,7.47,10.65,28.83,41.5,36.44,56.94C235.46,316.85,252.58,339.6,267.51,342.19Z" transform="translate(-187.84 -171.16)"/><path class="cls-1" d="M215.93,254a114.84,114.84,0,0,1-1.22-19.47c0-1,.07-2.07.12-3.11s.12-2.05.2-3.07A101.52,101.52,0,0,1,220,204.16a28.35,28.35,0,0,0-5.62-.59c-10.26,0-21.07,6.39-25.46,30.35-.25,1.38-.49,2.8-.7,4.29-.12.85-.23,1.71-.33,2.59a5.88,5.88,0,0,1,.89-.05c.29,0,.67,0,1.12.05C193.4,241.13,201.81,243.22,215.93,254Z" transform="translate(-187.84 -171.16)"/><path class="cls-1" d="M310.16,198.65a6.15,6.15,0,0,1,2.18-1.48,57,57,0,0,0,8.81-4.59c-1.65-13.76-8.26-17.28-14.57-17.28-6.54,0-12.75,3.76-12.75,3.76a15.77,15.77,0,0,0-4.85-.81,13.19,13.19,0,0,0-9,3.65,82.31,82.31,0,0,1,28.85,15.61C309.27,197.88,309.71,198.27,310.16,198.65Z" transform="translate(-187.84 -171.16)"/><path class="cls-1" d="M321,209.59q1.39,1.66,2.72,3.39t2.62,3.56A98.18,98.18,0,0,1,339,241.59a96.28,96.28,0,0,1,3.33,50.29A91.62,91.62,0,0,1,327.09,327c-.79,1.09-2.16,2.92-3.9,4.94,26.61-10.73,28.31-73.6,27.07-83.59-1.5-12-2.33-38.84-.15-51.68.69-15.41-1.11-20.37-3.87-20.37-3.85,0-9.59,9.64-13.11,14.09a30.53,30.53,0,0,1-5.55,5.26c-1,.74-2,1.43-3,2.07s-2.08,1.29-3.07,1.85a63.33,63.33,0,0,1-6.8,3.33Q318,206.06,321,209.59Z" transform="translate(-187.84 -171.16)"/><path class="cls-1" d="M224.39,265c.48,1.89,1,3.77,1.57,5.64a144.33,144.33,0,0,0,33.29,56.81c5,5.3,11.54,10.91,19,12.33a19.35,19.35,0,0,0,2.16.3c.55,0,1.09.06,1.63.06h.54a30.39,30.39,0,0,0,4.46-.47c2-.35,4-.85,6-1.36a64.08,64.08,0,0,1,7.92-1.66,26.36,26.36,0,0,1,3.33-.23,20.9,20.9,0,0,1,2.61.16h.11a5.21,5.21,0,0,0,2.17-.64c.22-.1.43-.22.66-.34a22.72,22.72,0,0,0,3.15-2.24c12.51-10.39,35-45.06,20.09-89.84a91,91,0,0,0-8.33-18q-1.16-1.94-2.42-3.81t-2.51-3.59q-2.52-3.41-5.33-6.54-1.46-1.62-3-3.17t-3.08-3a77.16,77.16,0,0,0-32.69-18.26c-1-.27-2.08-.51-3.13-.73s-2.14-.42-3.21-.6a65.37,65.37,0,0,0-24.29.69,24.78,24.78,0,0,0-12.45,6.34c-.29.29-.57.59-.84.91a24.69,24.69,0,0,0-3.84,6.37c-.24.54-.46,1.08-.68,1.62s-.29.82-.45,1.24c-.36,1-.73,1.92-1.06,2.89a95.34,95.34,0,0,0-4.74,23.74q-.12,1.57-.18,3.15c-.05,1.06-.08,2.13-.09,3.19a111.6,111.6,0,0,0,2.38,23.93Q223.75,262.47,224.39,265Z" transform="translate(-187.84 -171.16)"/><path class="cls-1" d="M648.84,333.09v0c-2.22-4.47-6.1-7.1-10-9.82-7.05-4.93-15.06-7.74-23.13-10.41-2.79-.92-4.06,1.25-5.26,3-4.43,6.55-8.37,13.34-13.2,19.61A160.41,160.41,0,0,1,581.6,353a168.41,168.41,0,0,1-42.54,29.51c-6,3-12.46,5.22-18.71,7.77,0,.28-.05.55-.07.83,8.48,2.74,16.83,6.08,25.48,8.06,10.18,2.33,19.7.25,27.24-7.74,7.37-7.82,14-16.21,21.94-23.3,0,0,0,0,0,0l1.52-1.63C601.62,360.91,608.34,358,615,355l.21-.09c5.93-2.93,12.08-5.44,18.25-7.85l.79-.31h0q5.22-2.53,10.38-5.17a12.34,12.34,0,0,0,1.73-1.06h0a8.18,8.18,0,0,0,2.36-3A6.61,6.61,0,0,0,648.84,333.09Z" transform="translate(-187.84 -171.16)"/><path class="cls-1" d="M505.39,188.46a12.7,12.7,0,0,0,8.4,2c7.46-.59,12.09-2.17,19.41,1.23a27.85,27.85,0,0,1,13.41,13c2.12,4.46,3,9.48,5.6,13.71,1.9,3.14,5.44,6.24,9.31,6.35s7.25-2.61,11.18-2.61,8.4,1.88,10.09,5.58c1.33,2.9.82,6.28.13,9.41-2.59,11.78-7.34,22.95-11.26,34.32a11.57,11.57,0,0,0-.24,2c3-.79,5.54-1.59,8.17-2.15,3.77-.8,7.56-1.57,11.37-2.09,4.22-.56,8.48-.82,12.71-1.24a4.23,4.23,0,0,0,1.42-.46c9.65-4.81,13.95-17.06,9-26.64-2.36-4.58-6-8.33-9.46-12.15-9.2-10.23-17.27-21.45-26.66-31.5s-20.42-19.07-33.47-23.43c-9.74-3.26-20.77-3.63-30.46,0C508.29,176,495.21,181.21,505.39,188.46Z" transform="translate(-187.84 -171.16)"/><path class="cls-1" d="M523,216.27c4,4.78,3.21,10,.71,15.21-.84,1.74-1.48,3.58-2.59,6.29,10.33-1.55,19-5.4,28.73-7.92l-4.14-5c-5,1.11-9.87,2.18-14.69,3.26-.07-.16-.14-.33-.2-.49,2.45-1.86,5.05-3.56,7.33-5.62,6.43-5.83,4.77-7.64.22-14-4-5.59-10.41-8-17.35-8-5.78,0-11.66-.74-17.24,1.56-.95.39-1.86.92-2.88,1.44,5.48,2.67,10.73,5,15.69,7.77A24.23,24.23,0,0,1,523,216.27Z" transform="translate(-187.84 -171.16)"/><path class="cls-1" d="M465.15,218a22.51,22.51,0,0,0-1.89,2.25c-2.79,4.36,3.91,5.8,6.61,7,4.05,1.84,8,3.86,12.2,5.45,0,0,0,0,0,0l.05,0c1,.18,1.84,0,1.81-1.11a.08.08,0,0,0,0,0c-1-2-2.44-4.43-2.15-6.74a6.21,6.21,0,0,1,3-4.52c2.14-1.26,4.84-1.1,7.25-.5a22.65,22.65,0,0,1,9.47,5A10.29,10.29,0,0,1,504,228a5,5,0,0,1,.23,4c-2-2.83-3.82-5.69-7.58-6.13a6.71,6.71,0,0,0-6.12,2.5,5.45,5.45,0,0,0,0,6.45c1.3,1.58,3.43,2.18,5.45,2.5,6.67,1.07,15,1,20.17-4.11a10.58,10.58,0,0,0,3.14-9.36,11.87,11.87,0,0,0-4.23-6.51c-7.45-6.19-18.9-9.74-28.44-10.19-3.42-.17-6.84.08-10.26,0-2.91,0-5.74-.55-8.6-.55l0,0c-.63.42-.62,1.62-.49,2.87a17.49,17.49,0,0,1,.25,3A11,11,0,0,1,465.15,218Z" transform="translate(-187.84 -171.16)"/><path class="cls-1" d="M550,284.23c4.25-2.43,8.15-4.63,12-6.9a2.7,2.7,0,0,0,1-1.45c2.12-6.11,4.18-12.24,6.27-18.36,1.62-4.7,3.3-9.37,4.86-14.1a15.3,15.3,0,0,0-.59-10.54c-1.32-3.34-6.71-4.94-10.18-3.07-16.1,8.63-31.11,14.53-49.91,14.27a94.31,94.31,0,0,1-26.57-4.17A87.92,87.92,0,0,1,474.3,235c-1.6-.77-10.86-4.63-11-6.38.19,2.14.14,4.41,1,6.4a89.27,89.27,0,0,0,16,24.06c4.05,4.44,8,9,12.45,13.05,5.51,5,11.63,9.36,17.23,14.29a179.19,179.19,0,0,1,13.28,13c2.67,2.91,3.22,3.09,6.23.52a152.31,152.31,0,0,1,13.59-10.75c2.9-2,2.6-4.21,2.08-6.77-.71-3.48-1.88-6.88-2.34-10.38a16.35,16.35,0,0,1,6-15.25,97.57,97.57,0,0,1,11-8C552.81,259.52,546.82,270.36,550,284.23ZM541.18,256c-7.85,7.44-17.43,10.08-27.48,10.39-5.93.19-12.18-1.74-17.82-3.92-4.13-1.59-8.4-4.14-10.63-9.56,4.62.94,8.63,2.09,12.72,2.52a80,80,0,0,0,29.16-1.75c10.79-2.82,20.48-7.65,29.79-13.58,1.76-1.12,3.91-1.62,5.87-2.4C555.54,244,547.94,249.57,541.18,256Z" transform="translate(-187.84 -171.16)"/><path class="cls-1" d="M459.18,208.17c-4.37-5.48-14.28,3.52-15.68,7.81-1.48,4.56-.81,9.52.09,14.23,1.74,9.1,4.36,18.2,9.38,26,7,10.85,18,18.14,29.3,23.87,5.25,2.67,11.23,4.57,16,7.94a76.49,76.49,0,0,1,14.37,13.94c1.11,1.34,2.08,3.07,3.43,4.19l.19.15c.39.3,2.59,1.06,2.65,1.49-1-8.18-8.3-14.13-13.87-19.46-6.44-6.16-13.55-11.57-20.35-17.31-9.05-7.63-17.78-16.06-23.09-26.63A42.22,42.22,0,0,1,457,222.56C457.27,218.77,462,211.69,459.18,208.17Z" transform="translate(-187.84 -171.16)"/><path class="cls-1" d="M449.32,317.51c1.95,4.71,4.72,9.37,9.13,11.93a17.69,17.69,0,0,0,10.43,2.09,34.91,34.91,0,0,0,11.17-3.07c10.56-4.73,21.08-9.5,31.31-14.87,9.16-4.77-22.41-24-26.48-25.91-9.71-4.48-20-8.22-28.64-14.64-2.32-1.71-3-3.45-5.25-1.69-5,4-5.7,16.6-5.9,22.39A57.57,57.57,0,0,0,449.32,317.51Z" transform="translate(-187.84 -171.16)"/><path class="cls-1" d="M598.37,274.48a97.11,97.11,0,0,0-28,8.69c-4.17,2-8.24,4.14-12.21,6.45C525,312.11,493.1,333.51,453,340.64a5.74,5.74,0,0,0-2.25.91c-5.27,3.65-2.93,16.12-.65,20.4,10.29,19.31,39.95,27.33,59.84,22a96.19,96.19,0,0,0,25.83-10.77c3.85-2.36,7.66-4.46,11.37-7.13q5.83-4.21,11.42-8.74a256.6,256.6,0,0,0,39.56-40c5.9-7.45,12-15.18,16.33-23.73l.05-.09a7.62,7.62,0,0,0,.17-.94c-1.42,1.14-5,1-6.7,1.3a225.78,225.78,0,0,0-28.08,5.74q-7.22,2.06-14.25,4.65-3.51,1.3-7,2.74c-.76.31-6.14,3.2-6.59,2.87-.87-.62.27-1.13.83-1.61,3-2.59,5.47-5.23,8.86-7.25a86.35,86.35,0,0,1,10.8-5.4,137.62,137.62,0,0,1,22.89-7c6.35-1.43,12.75-2.59,19.14-3.76,6.11-1.12,12.88-1.73,18.74-3.79-2.14-2.56-4.18-3.63-7.39-4.74C617,273.16,607.59,273.19,598.37,274.48Z" transform="translate(-187.84 -171.16)"/><path class="cls-1" d="M360.05,308.28a114.74,114.74,0,0,1,33.84,16.31c5.08,3.67,9.93,7.68,14.73,11.72,9,7.58,17.37,16,28.58,20.52a7.34,7.34,0,0,0,1.31.19c-3.06-9.73-2.36-18.22,7.51-23.1-3.1,1.52-30.87-52.14-33.68-57.19-2-3.61-4.16-7.37-7.67-9.56-7.27-4.53-19.49,4.43-25.1,8.88-5.95,4.72-11.95,9.36-16.33,15.7-2,2.94-4.28,5.73-6.13,8.77C354.72,304.41,355.72,307,360.05,308.28Z" transform="translate(-187.84 -171.16)"/><path class="cls-1" d="M417.83,270.48c5.3,9.91,10.61,19.83,15.84,29.79,2.32,4.41,4,9.14,6,13.7.31.7.89,2.18,1.65,2.33.49-2.22-.61-5.71-.93-8-.37-2.74-.78-5.48-1.25-8.21a121,121,0,0,0-3.71-15.84c-.39-1.25-.81-2.49-1.25-3.71a113,113,0,0,0-12.92-24.8c-4.66-6.87-12.71-14.08-11.75-23.2,0-.14,0-.3,0-.44a37.81,37.81,0,0,1,2.2-11.23c4.2.23,4.87,4.1,5.22,7.48.87,8.59,5.3,16.38,10,23.62,2.86,4.39,5.86,8.7,8.39,13.3s3.79,9.27,5.49,14.17c.6-1.09,1.23-2.09,1.72-3.14,2.7-5.76,4.95-11.66,2.92-18.12-1.12-3.6-2.59-7.09-4-10.59-1.88-4.58-4.61-8.78-6-13.55a32.07,32.07,0,0,1,3.66-26.48,32,32,0,0,1,4.11-5.24c1.33-1.38,2.45-2.12,2.82-4-3.72-.06-7.66-.8-11.32.17-5.93,1.58-11.55,4.3-17.36,6.37-1.9.67-4,.78-6.89,1.3a16.53,16.53,0,0,1,2.18-2.28c6.32-4,12.63-8,19.06-11.83,7.26-4.31,15.68-5.15,23.9-3.84,7.06,1.12,12.76,5.11,19.58,6.77a99.72,99.72,0,0,0,14,.59c3.39-.11,6-.51,5.8-1.42-4.15-19.75-27.74-20-43.71-18.93a196.39,196.39,0,0,0-46.49,9.33c-10.78,3.54-17,15.59-16.88,26.93s5.51,22,11.76,31.44C405.79,252.1,412.6,260.72,417.83,270.48Z" transform="translate(-187.84 -171.16)"/><path class="cls-1" d="M400.17,185.59a29.28,29.28,0,0,1,5.84-2.18l-.37.06c-.38.05-.75.12-1.11.19a35.54,35.54,0,0,0-4.36,1.78,18.12,18.12,0,0,0-8,8.91l-.1.27A18.09,18.09,0,0,1,400.17,185.59Z" transform="translate(-187.84 -171.16)"/><path class="cls-1" d="M355.62,426c.12-.37.23-.74.36-1.12.55-1.65,1.17-3.52,1.85-5.55s1.48-4.19,2.33-6.48l1.32-3.4.95-2.41c.17-.44.33-.87.51-1.32l.46-1.17c.82-2.11,1.68-4.25,2.58-6.44.55-1.28,1.13-2.57,1.72-3.86s1.23-2.56,1.89-3.82c1.33-2.52,2.71-5,4.18-7.42s2.94-4.74,4.44-7c3-4.44,6-8.47,8.75-11.83s5.1-6.06,6.73-8c.43-.51.81-1,1.13-1.37s.54-.67.73-.93a3.77,3.77,0,0,0,.56-1v0a.25.25,0,0,0-.17-.3.23.23,0,0,0-.29.13,3.23,3.23,0,0,1-.56.79c-.45.49-1.14,1.2-2.05,2.08-1.81,1.76-4.41,4.28-7.41,7.44s-6.4,7-9.76,11.29c-1.68,2.15-3.38,4.42-5,6.81s-3.21,4.84-4.72,7.35c-.77,1.25-1.49,2.53-2.23,3.79s-1.4,2.57-2.1,3.84c-.59,1.1-1.14,2.21-1.68,3.32-3.28-7.86-2-19.26,4.17-29.64a37.57,37.57,0,0,1,5.75-7c11.09-11.1,31.14-23.28,39.4-28.1-.32,11.7-1.85,44.13-9.17,56.47a43.8,43.8,0,0,1-6.66,8.62c-8.65,8.66-19.36,11.62-26.79,7.47l-1.15,2.16-1.15,2.15-8.18,15.33-2.56,4.8c.21-.63.47-1.45.78-2.48S355.23,427.23,355.62,426Z" transform="translate(-187.84 -171.16)"/><path class="cls-1" d="M349.42,529.56c-13.82,3.88-45.54-3-56.91-5.75,6.78-6.74,23.74-23,37.33-30.79a38,38,0,0,1,8.28-3.74c11.62-3.25,23-1.56,29.71,3.65-1.21.23-2.43.48-3.65.76l-4.24,1c-1.41.39-2.84.74-4.24,1.17-2.82.81-5.62,1.68-8.33,2.65s-5.35,2-7.87,3.06a149,149,0,0,0-13.42,6.51c-3.83,2.08-6.94,3.94-9.11,5.23-1.09.65-2,1.13-2.54,1.44a3.56,3.56,0,0,1-.91.34.23.23,0,0,0-.19.28.23.23,0,0,0,.24.2h0a3.8,3.8,0,0,0,1.07-.28l1.09-.47,1.61-.74c2.3-1.07,5.52-2.7,9.48-4.43s8.61-3.63,13.68-5.39c2.54-.88,5.19-1.71,7.89-2.49s5.47-1.48,8.24-2.11c1.39-.32,2.8-.56,4.19-.84s2.79-.47,4.17-.66c2.34-.31,4.64-.58,6.89-.83l1.25-.14,1.4-.16,2.58-.28,3.63-.4c2.42-.23,4.72-.42,6.85-.57l4.55-.28,1.3-.08,4.54-.21c1.07,0,1.93-.07,2.59-.11l-7.47,1.74-14.75,3.43-2.37.55-2.39.55c2.08,8.26-3.54,17.83-14.15,23.95A43.69,43.69,0,0,1,349.42,529.56Z" transform="translate(-187.84 -171.16)"/><path class="cls-1" d="M536.29,439.52c-10.85,2.77-20.26,8.29-26.51,15.55a31.07,31.07,0,0,0-5.24,8.38q2.28-.79,4.64-1.52c1.84-.55,3.71-1.08,5.58-1.61s3.76-1,5.67-1.48c3.78-.94,7.59-1.8,11.36-2.48s7.5-1.26,11.11-1.71,7.11-.77,10.44-1,6.46-.36,9.36-.42c5.8-.15,10.63-.08,14,0,1.68,0,3,0,3.87,0a4.56,4.56,0,0,0,1.28-.21.34.34,0,0,1,.42.19.33.33,0,0,1-.19.42l-.33.13a6.45,6.45,0,0,1-1.09.25c-.43.06-1,.13-1.57.19s-1.47.15-2.35.22c-3.37.29-8.16.56-13.87,1.19-2.86.29-5.94.7-9.19,1.17s-6.67,1-10.18,1.72-7.11,1.48-10.74,2.37-7.29,1.93-10.91,3.05c-1.81.56-3.6,1.19-5.38,1.81s-3.52,1.33-5.25,2q-4.35,1.8-8.48,3.62l-1.55.67-1.72.75-3,1.33-.13.05-4.42,2c-1.46.7-2.91,1.34-4.3,2l-4,1.92-.23.12c-2.47,1.19-4.73,2.34-6.74,3.35l-5.38,2.78c-1.26.67-2.29,1.2-3.07,1.6l14.74-4.48L497.17,479l3.14-1,3.05-.92c3,11,15.9,18.66,32.31,18.66h0a58.39,58.39,0,0,0,14.38-2.09c18.5-4.71,50.48-33.9,61.79-44.6-12.31-3.25-42.64-10.79-63.51-10.79A50.1,50.1,0,0,0,536.29,439.52Z" transform="translate(-187.84 -171.16)"/><path class="cls-2" d="M464.7,380.71s-30.45,48.59,46,243.12" transform="translate(-187.84 -171.16)"/></g></svg>