<svg id="Layer_1" data-name="Layer 1" xmlns="http://www.w3.org/2000/svg" viewBox="0 0 1424.2 929.66"><title>PESEDEU</title><path d="M281.9,311.6H428.53c154,0,255.24,80.6,255.24,262.94,0,182.56-101.25,267.82-248.45,267.82H281.9Zm140,434c82.57,0,138.73-44.1,138.73-171.07,0-126.75-56.16-166.19-138.73-166.19H402V745.61Z" transform="translate(-257.82 -65.16)"/><path d="M755.91,775.48,824.84,693c40.13,32.86,89.64,55.4,141.09,55.4,51,0,74.52-19.75,74.52-45.7,0-38.2-31.55-47.44-81.78-68.48l-69.14-29.51C830.71,582.34,777,537.24,777,460c0-87.91,79.18-158.17,194.5-158.17,63.85,0,128.36,23.94,176.27,69.5L1087.29,447c-37.37-26.84-70.45-41.46-122.31-41.46-39.56,0-66.41,16.4-66.41,47.41,0,31.92,35.58,43.6,86.47,62.69l65,27.52c69.49,26.06,113.39,69.4,113.39,144.29,0,88.23-74,164.64-205.41,164.64C886.25,852.13,812.19,825.88,755.91,775.48Z" transform="translate(-257.82 -65.16)"/><path d="M1265.89,311.6h188.29c115.16,0,207.91,41.67,207.91,170.71,0,125-95.33,180-207.91,180H1386v180H1265.89ZM1447.21,567c65.82,0,97.1-29.51,97.1-84.68,0-55.41-33.86-75.36-97.1-75.36H1386V567Z" transform="translate(-257.82 -65.16)"/><path d="M286.62,918.94h16.15c17,0,28.13,8.88,28.13,29s-11.16,29.51-27.38,29.51h-16.9ZM302,966.76c9.1,0,15.29-4.86,15.29-18.85S311.14,929.6,302,929.6h-2.19v37.16Z" transform="translate(-257.82 -65.16)"/><path d="M339.26,955.14c0-14.57,11.23-23.31,23.16-23.31,13.73,0,21,9.26,21,21.36a38,38,0,0,1-.56,5.92H349.05v-8.86h24.84l-2.08,2.52c0-7.15-3.1-10.9-8.95-10.9-6.53,0-10.81,4.42-10.81,13.27,0,9.23,5,13.29,13.69,13.29a24.41,24.41,0,0,0,11.47-3.09l4.37,7.95a34,34,0,0,1-17.65,5.21C350.05,978.5,339.26,969.93,339.26,955.14Z" transform="translate(-257.82 -65.16)"/><path d="M391.47,932.9h9.94l.95,5.49h.31c1.66-3.59,4.48-6.56,9.64-6.56,3.85,0,6.67,2.51,7.74,7.28,1.6-4,4.75-7.28,9.84-7.28,6.36,0,9.95,5.47,9.95,14.36v31.23H427.3v-30.3c0-2.76-.66-4.07-2.4-4.07s-2.85,1.41-4.09,4.34v30H410.5v-30.3c0-2.76-.81-4.07-2.55-4.07s-2.76,1.41-3.94,4.34v30H391.47Z" transform="translate(-257.82 -65.16)"/><path d="M446.58,955.19c0-14.82,11-23.36,22.7-23.36s22.7,8.54,22.7,23.36-11,23.31-22.7,23.31S446.58,970,446.58,955.19Zm31.88,0c0-7.72-3.1-12.7-9.18-12.7s-9.18,5-9.18,12.7,3.1,12.65,9.18,12.65S478.46,962.88,478.46,955.19Z" transform="translate(-257.82 -65.16)"/><path d="M502.39,955.19c0-14.82,12-23.36,25.75-23.36,7,0,12.94,2.48,16.66,6l-6.08,8.18a16.25,16.25,0,0,0-9.86-3.57c-7.66,0-13,5-13,12.7s5.2,12.65,12.51,12.65c4.67,0,8.51-2,11.71-4.24l5.33,8.34a28.93,28.93,0,0,1-18.29,6.56C513.14,978.5,502.39,970,502.39,955.19Z" transform="translate(-257.82 -65.16)"/><path d="M560.76,932.9h10.85l1,9.74H573c4.38-7.28,10.95-10.81,18-10.81a18.34,18.34,0,0,1,8.55,1.79l-2.68,11.1a23.05,23.05,0,0,0-7.88-1.31c-5.51,0-11.19,2.87-15,10.86v23.15H560.76Z" transform="translate(-257.82 -65.16)"/><path d="M609.92,965.08c0-10,8.24-15.06,29.28-16.33-.47-4-3.47-6.42-9.44-6.42-4.3,0-8.56,1.66-13.57,4.17l-4.71-8.65a42.3,42.3,0,0,1,20.83-6c12.52,0,20.1,6.5,20.1,20.15v25.44H641.62l-1-5h-.34c-4.49,3.38-10.06,6.09-15.78,6.09C615.55,978.5,609.92,972.56,609.92,965.08ZM639.2,964v-7.29c-13.1.66-16.62,3.49-16.62,7.29,0,2.87,2.42,4.26,6.15,4.26C632.69,968.28,636.05,966.46,639.2,964Z" transform="translate(-257.82 -65.16)"/><path d="M674.08,959V943.25H662.86v-9.83l11.81-.52,1.7-13.61h10.92V932.9h18.77v10.35H687.29V958.8c0,6.78,2.86,9.32,9.35,9.32a26.17,26.17,0,0,0,8.79-1.58l2.4,9.55a48.63,48.63,0,0,1-14.55,2.41C679.11,978.5,674.08,970.65,674.08,959Z" transform="translate(-257.82 -65.16)"/><path d="M737.43,943.25H719.5V932.9h31.14v44.52H737.43Zm-2.77-25.37c0-4.84,3.68-8.21,8.77-8.21s8.77,3.37,8.77,8.21-3.68,8.07-8.77,8.07S734.66,922.74,734.66,917.88Z" transform="translate(-257.82 -65.16)"/><path d="M772.5,955.19c0-14.82,12-23.36,25.74-23.36,7,0,12.94,2.48,16.66,6l-6.08,8.18a16.25,16.25,0,0,0-9.86-3.57c-7.65,0-12.94,5-12.94,12.7s5.2,12.65,12.5,12.65c4.67,0,8.51-2,11.71-4.24l5.33,8.34a28.93,28.93,0,0,1-18.29,6.56C783.24,978.5,772.5,970,772.5,955.19Z" transform="translate(-257.82 -65.16)"/><path d="M879.05,970.05l7.59-9.09c4.42,3.62,9.88,6.11,15.55,6.11s8.21-2.18,8.21-5c0-4.21-3.48-5.22-9-7.54l-7.62-3.25c-6.48-2.47-12.4-7.44-12.4-16,0-9.68,8.73-17.42,21.43-17.42a28.34,28.34,0,0,1,19.43,7.65l-6.67,8.35c-4.12-3-7.76-4.57-13.48-4.57-4.36,0-7.32,1.8-7.32,5.22s3.92,4.81,9.53,6.91l7.16,3c7.65,2.87,12.49,7.65,12.49,15.9,0,9.72-8.15,18.14-22.63,18.14A33.66,33.66,0,0,1,879.05,970.05Z" transform="translate(-257.82 -65.16)"/><path d="M932.76,955.19c0-14.82,11-23.36,22.7-23.36s22.71,8.54,22.71,23.36-11,23.31-22.71,23.31S932.76,970,932.76,955.19Zm31.89,0c0-7.72-3.11-12.7-9.19-12.7s-9.18,5-9.18,12.7,3.1,12.65,9.18,12.65S964.65,962.88,964.65,955.19Z" transform="translate(-257.82 -65.16)"/><path d="M988.58,955.19c0-14.82,12-23.36,25.74-23.36,7,0,12.94,2.48,16.66,6l-6.08,8.18a16.25,16.25,0,0,0-9.86-3.57c-7.65,0-12.94,5-12.94,12.7s5.2,12.65,12.5,12.65c4.68,0,8.52-2,11.72-4.24l5.32,8.34a28.91,28.91,0,0,1-18.29,6.56C999.32,978.5,988.58,970,988.58,955.19Z" transform="translate(-257.82 -65.16)"/><path d="M1061.55,943.25h-17.93V932.9h31.14v44.52h-13.21Zm-2.77-25.37c0-4.84,3.68-8.21,8.77-8.21s8.77,3.37,8.77,8.21-3.67,8.07-8.77,8.07S1058.78,922.74,1058.78,917.88Z" transform="translate(-257.82 -65.16)"/><path d="M1096.1,965.08c0-10,8.25-15.06,29.28-16.33-.46-4-3.46-6.42-9.44-6.42-4.29,0-8.56,1.66-13.57,4.17l-4.71-8.65a42.3,42.3,0,0,1,20.83-6c12.52,0,20.1,6.5,20.1,20.15v25.44H1127.8l-1-5h-.33c-4.5,3.38-10.07,6.09-15.78,6.09C1101.73,978.5,1096.1,972.56,1096.1,965.08Zm29.28-1.06v-7.29c-13.1.66-16.61,3.49-16.61,7.29,0,2.87,2.41,4.26,6.14,4.26C1118.88,968.28,1122.23,966.46,1125.38,964Z" transform="translate(-257.82 -65.16)"/><path d="M1163.07,960V924.92h-14V914.57h27.23v46c0,5.5,3.53,7.29,7.25,7.29a19.1,19.1,0,0,0,6.93-1.46l2.93,9.71c-4.62,1.51-7.76,2.41-13.29,2.41C1168.9,978.5,1163.07,971.3,1163.07,960Z" transform="translate(-257.82 -65.16)"/><path d="M1223.61,943.25h-17.93V932.9h31.14v44.52h-13.21Zm-2.77-25.37c0-4.84,3.68-8.21,8.77-8.21s8.77,3.37,8.77,8.21-3.67,8.07-8.77,8.07S1220.84,922.74,1220.84,917.88Z" transform="translate(-257.82 -65.16)"/><path d="M1257.42,971.68l5.61-8.24a33.91,33.91,0,0,0,18,5.28c4.9,0,7.06-1.63,7.06-3.82,0-2.48-2.15-3.39-10.89-5.23-12.11-2.59-16.92-7-16.92-13.91,0-8.29,7.74-13.93,20.46-13.93a36.14,36.14,0,0,1,19.27,6.08l-5.92,7.93a28.62,28.62,0,0,0-14.56-4.26c-4.12,0-6.17,1.48-6.17,3.57,0,2.47,2.73,3.05,10.28,4.74,13.74,3.08,17.56,7,17.56,14.24,0,8.06-7.69,14.37-22,14.37A41.45,41.45,0,0,1,1257.42,971.68Z" transform="translate(-257.82 -65.16)"/><path d="M1322.32,959V943.25H1311.1v-9.83l11.81-.52,1.71-13.61h10.91V932.9h18.77v10.35h-18.77V958.8c0,6.78,2.86,9.32,9.36,9.32a26.27,26.27,0,0,0,8.79-1.58l2.39,9.55a48.63,48.63,0,0,1-14.55,2.41C1327.36,978.5,1322.32,970.65,1322.32,959Z" transform="translate(-257.82 -65.16)"/><path d="M1421.42,918.94h20.74c12.69,0,22.91,4.6,22.91,18.81,0,13.77-10.5,19.84-22.91,19.84h-7.51v19.83h-13.23Zm20,28.14c7.25,0,10.69-3.25,10.69-9.33s-3.73-8.3-10.69-8.3h-6.75v17.63Z" transform="translate(-257.82 -65.16)"/><path d="M1474.24,965.08c0-10,8.25-15.06,29.28-16.33-.46-4-3.46-6.42-9.44-6.42-4.29,0-8.56,1.66-13.57,4.17l-4.71-8.65a42.3,42.3,0,0,1,20.83-6c12.52,0,20.1,6.5,20.1,20.15v25.44H1506l-1-5h-.33c-4.5,3.38-10.07,6.09-15.78,6.09C1479.87,978.5,1474.24,972.56,1474.24,965.08Zm29.28-1.06v-7.29c-13.09.66-16.61,3.49-16.61,7.29,0,2.87,2.41,4.26,6.14,4.26C1497,968.28,1500.38,966.46,1503.52,964Z" transform="translate(-257.82 -65.16)"/><path d="M1533.12,932.9H1544l1,9.74h.31c4.38-7.28,10.94-10.81,18.05-10.81a18.39,18.39,0,0,1,8.55,1.79l-2.68,11.1a23.05,23.05,0,0,0-7.88-1.31c-5.52,0-11.19,2.87-15,10.86v23.15h-13.21Z" transform="translate(-257.82 -65.16)"/><path d="M1592.42,959V943.25h-11.21v-9.83l11.81-.52,1.7-13.61h10.91V932.9h18.77v10.35h-18.77V958.8c0,6.78,2.87,9.32,9.36,9.32a26.22,26.22,0,0,0,8.79-1.58l2.39,9.55a48.61,48.61,0,0,1-14.54,2.41C1597.46,978.5,1592.42,970.65,1592.42,959Z" transform="translate(-257.82 -65.16)"/><path d="M1636.82,993.92l2.37-10.07a11.78,11.78,0,0,0,3.43.57c5.13,0,7.9-2.37,9.34-5.81l.87-2.33-19.25-43.38h13.11l7.48,19.13c1.58,4.19,3,8.7,4.41,13.37h.36c1.21-4.45,2.72-9,4.09-13.37l6.51-19.13H1682l-17.54,45c-4.33,11.14-9.63,16.92-20.88,16.92A25,25,0,0,1,1636.82,993.92Z" transform="translate(-257.82 -65.16)"/><path d="M257.82,179.4l15.64-18.72c9.1,7.46,20.33,12.57,32,12.57s16.9-4.48,16.9-10.37c0-8.66-7.16-10.76-18.55-15.53l-15.69-6.69c-13.34-5.08-25.51-15.31-25.51-32.83,0-19.94,18-35.88,44.12-35.88a58.29,58.29,0,0,1,40,15.77L333,104.89c-8.48-6.08-16-9.4-27.75-9.4-9,0-15.07,3.72-15.07,10.75,0,7.24,8.08,9.89,19.62,14.22l14.73,6.25c15.77,5.91,25.72,15.74,25.72,32.73,0,20-16.79,37.35-46.59,37.35A69.4,69.4,0,0,1,257.82,179.4Z" transform="translate(-257.82 -65.16)"/><path d="M373.05,102.91h22.16l2,9.32h.68c7.39-6.74,17.48-11.54,27.31-11.54,22.87,0,36.74,18.33,36.74,46.62,0,31.42-19.22,49.48-39.77,49.48-8,0-16-3.59-22.52-9.91H399l1.28,14.86v26.84h-27.2Zm61,44.67c0-16.44-5.39-24.62-16.91-24.62-5.81,0-11.18,2.46-16.9,8.5v37a23.74,23.74,0,0,0,15.7,6.08C426,174.52,434.06,166.55,434.06,147.58Z" transform="translate(-257.82 -65.16)"/><path d="M479.64,148.79c0-30.51,22.55-48.1,46.74-48.1s46.74,17.59,46.74,48.1-22.56,48-46.74,48S479.64,179.2,479.64,148.79Zm65.64,0c0-15.89-6.39-26.15-18.9-26.15s-18.91,10.26-18.91,26.15,6.39,26.05,18.91,26.05S545.28,164.63,545.28,148.79Z" transform="translate(-257.82 -65.16)"/><path d="M595.49,102.91h22.16l2,12.22h.74c7.95-7.79,18-14.44,31.67-14.44,20.72,0,29.84,14.17,29.84,37.28v56.6H654.67v-53.1c0-12.2-3.52-17.61-13.45-17.61-7.25,0-12.19,3.36-18.53,9.54v61.17h-27.2Z" transform="translate(-257.82 -65.16)"/><path d="M703.18,182.74l11.55-17a69.92,69.92,0,0,0,37,10.87c10.09,0,14.54-3.35,14.54-7.86,0-5.11-4.44-7-22.43-10.77C718.89,152.69,709,143.54,709,129.39c0-17.08,15.94-28.7,42.11-28.7,16.34,0,30.15,6.43,39.68,12.53l-12.19,16.32a59,59,0,0,0-30-8.76c-8.48,0-12.69,3-12.69,7.34,0,5.09,5.62,6.28,21.17,9.76,28.28,6.34,36.15,14.39,36.15,29.32,0,16.59-15.83,29.59-45.24,29.59C731.65,196.79,714.74,190.45,703.18,182.74Z" transform="translate(-257.82 -65.16)"/><path d="M813.3,148.79c0-30.51,22.56-48.1,46.74-48.1s46.74,17.59,46.74,48.1-22.56,48-46.74,48S813.3,179.2,813.3,148.79Zm65.64,0c0-15.89-6.39-26.15-18.9-26.15s-18.91,10.26-18.91,26.15,6.39,26.05,18.91,26.05S878.94,164.63,878.94,148.79Z" transform="translate(-257.82 -65.16)"/><path d="M937.16,102.91H959.5l2.15,20h.63c9-15,22.53-22.27,37.16-22.27a37.69,37.69,0,0,1,17.6,3.7l-5.5,22.85c-5.75-1.77-9.48-2.69-16.23-2.69-11.36,0-23,5.9-30.95,22.35v47.67h-27.2Z" transform="translate(-257.82 -65.16)"/><path d="M1037.22,148.69c0-30,23.13-48,47.68-48,28.27,0,43.15,19.08,43.15,44a78.29,78.29,0,0,1-1.14,12.17h-69.53V138.63h51.15l-4.28,5.18c0-14.71-6.4-22.44-18.45-22.44-13.42,0-22.24,9.1-22.24,27.32,0,19,10.36,27.37,28.18,27.37,8.31,0,15.48-2.26,23.61-6.37l9,16.38A70.17,70.17,0,0,1,1088,196.79C1059.45,196.79,1037.22,179.15,1037.22,148.69Z" transform="translate(-257.82 -65.16)"/><path d="M1147,148.79c0-30,19.26-48.1,39.18-48.1,10,0,16.9,3.59,23.11,9.86h.63l-1.27-14.18V65.16h27.2V194.57h-22.16l-2-9.43H1211c-6.72,6.65-16.24,11.65-25.37,11.65C1162.21,196.79,1147,178.72,1147,148.79ZM1208.61,166V129a21.59,21.59,0,0,0-15.33-6.08c-9.92,0-18.49,8.07-18.49,25.51,0,18,6.65,26.05,17.76,26.05C1198.75,174.52,1203.87,172.22,1208.61,166Z" transform="translate(-257.82 -65.16)"/><path d="M1398.25,184.59h-.68l-2.28,10H1374V65.16h27.2V96.73l-1,14.44h.69a36.94,36.94,0,0,1,25-10.48c22.87,0,36.92,18.33,36.92,46.44,0,31.6-19.21,49.66-39.66,49.66C1414.75,196.79,1405.77,192.57,1398.25,184.59Zm36.8-37c0-16.44-5.39-24.62-16.92-24.62-5.81,0-11.18,2.46-16.9,8.5v37a23.82,23.82,0,0,0,15.8,6.08C1427,174.52,1435.05,166.55,1435.05,147.58Z" transform="translate(-257.82 -65.16)"/><path d="M1484.31,228.54l4.88-20.73a24.34,24.34,0,0,0,7.06,1.16c10.56,0,16.27-4.88,19.24-12l1.79-4.79-39.62-89.31h27l15.4,39.38c3.25,8.62,6.19,17.9,9.09,27.52h.74c2.47-9.16,5.58-18.59,8.4-27.52l13.4-39.38h25.71l-36.12,92.65c-8.92,22.94-19.82,34.82-43,34.82A52.08,52.08,0,0,1,1484.31,228.54Z" transform="translate(-257.82 -65.16)"/><path d="M1617.09,115.34c0-12,8.78-21.7,21.49-21.7s21.5,9.66,21.5,21.7c0,12.22-8.79,21.7-21.5,21.7S1617.09,127.56,1617.09,115.34Zm0,59.74c0-12,8.78-21.7,21.49-21.7s21.5,9.67,21.5,21.7c0,12.22-8.79,21.71-21.5,21.71S1617.09,187.3,1617.09,175.08Z" transform="translate(-257.82 -65.16)"/></svg>