<svg id="Layer_1" data-name="Layer 1" xmlns="http://www.w3.org/2000/svg" viewBox="0 0 1671.33 650.96"><defs><style>.cls-1{fill:#fff;}</style></defs><title>PLAY BUTTOn</title><path class="cls-1" d="M140.84,202.5H309.12c102.92,0,185.81,37.24,185.81,152.56C494.93,466.74,409.74,516,309.12,516H248.2V676.84H140.84Zm162,228.24c58.83,0,86.78-26.37,86.78-75.68,0-49.51-30.26-67.35-86.78-67.35H248.2v143Z" transform="translate(-140.84 -166.99)"/><path class="cls-1" d="M672.93,535.62V251H559.29V167H780.08V540c0,44.65,28.71,59.14,58.85,59.14,16.71,0,34.34-3.52,56.26-11.81l23.69,78.74C881.4,678.3,856,685.58,811.13,685.58,720.19,685.58,672.93,627.2,672.93,535.62Z" transform="translate(-140.84 -166.99)"/><path class="cls-1" d="M1004.58,576.73c0-80.92,66.89-122.12,237.51-132.48-3.76-32.28-28.1-52-76.57-52-34.82,0-69.45,13.44-110.08,33.82l-38.2-70.18c50-28.54,107.63-48.85,169-48.85,101.53,0,163,52.78,163,163.44v206.4h-87.52L1254,636.16h-2.71c-36.47,27.42-81.65,49.42-128,49.42C1050.24,685.58,1004.58,637.43,1004.58,576.73Zm237.51-8.61V509c-106.24,5.34-134.76,28.36-134.76,59.19,0,23.23,19.59,34.51,49.84,34.51C1189.33,602.67,1216.56,588,1242.09,568.12Z" transform="translate(-140.84 -166.99)"/><path class="cls-1" d="M1445.49,810.67l19.2-81.66a96.28,96.28,0,0,0,27.83,4.57c41.62,0,64.11-19.22,75.8-47.13l7-18.86-156.1-351.85h106.31l60.68,155.16c12.78,33.92,24.39,70.52,35.8,108.41H1625c9.75-36.11,22-73.23,33.12-108.41l52.8-155.16h101.29l-142.31,365c-35.14,90.36-78.08,137.2-169.38,137.2A203.91,203.91,0,0,1,1445.49,810.67Z" transform="translate(-140.84 -166.99)"/></svg>